PathFileType  4	(X/Y/Z) C:\Users\antoi\Documents\MyRepositories\mobilecap\ResultsAnalysis
DataRate	CameraRate	NumFrames	NumMarkers	Units	OrigDataRate	OrigDataStartFrame	OrigNumFrames
100.0	100.0	4	51	mm	100.0	99	157
Frame#	Time	r_knee			r_shank_antsup			r_ankle			r_calc			r_5meta			r_toe			L_knee			L_shank_antsup			L_ankle			L_calc			L_5meta			L_toe			r_sh2			r_sh3			r_sh4			L_sh2			L_sh3			r_thigh1			r_thigh2			r_thigh3			r_thigh4			r_thigh5			L_thigh1			L_thigh2			L_thigh3			L_thigh4			r.ASIS			r.PSIS			L.ASIS			L.PSIS			C7			R_Shoulder			L_Shoulder			R_Sternum			L_Sternum			R_humerus			R_elbow_med			R_elbow_lat			R_forearm			R_wrist_radius			R_wrist_ulna			L_humerus			L_elbow_med			L_elbow_lat			L_forearm			L_wrist_radius			L_wrist_ulna			R_HJC			L_HJC			R_HJC_reg			L_HJC_reg			
		X1	Y1	Z1	X2	Y2	Z2	X3	Y3	Z3	X4	Y4	Z4	X5	Y5	Z5	X6	Y6	Z6	X7	Y7	Z7	X8	Y8	Z8	X9	Y9	Z9	X10	Y10	Z10	X11	Y11	Z11	X12	Y12	Z12	X13	Y13	Z13	X14	Y14	Z14	X15	Y15	Z15	X16	Y16	Z16	X17	Y17	Z17	X18	Y18	Z18	X19	Y19	Z19	X20	Y20	Z20	X21	Y21	Z21	X22	Y22	Z22	X23	Y23	Z23	X24	Y24	Z24	X25	Y25	Z25	X26	Y26	Z26	X27	Y27	Z27	X28	Y28	Z28	X29	Y29	Z29	X30	Y30	Z30	X31	Y31	Z31	X32	Y32	Z32	X33	Y33	Z33	X34	Y34	Z34	X35	Y35	Z35	X36	Y36	Z36	X37	Y37	Z37	X38	Y38	Z38	X39	Y39	Z39	X40	Y40	Z40	X41	Y41	Z41	X42	Y42	Z42	X43	Y43	Z43	X44	Y44	Z44	X45	Y45	Z45	X46	Y46	Z46	X47	Y47	Z47	X48	Y48	Z48	X49	Y49	Z49	X50	Y50	Z50	X51	Y51	Z51	

99	0.98000000	1006.17131	506.79221	-63.02719	1026.74289	444.79433	-71.30372	762.49735	191.46291	-99.25633	697.67836	186.88820	-154.01692	851.34675	66.58021	-50.51316	892.75211	76.90000	-104.18932	895.45731	490.48143	-374.98288	913.74637	401.89972	-383.71604	817.72450	93.95223	-326.71114	756.61744	60.94597	-272.97256	938.30080	40.23398	-351.29229	979.60425	59.75641	-298.06959	960.70248	351.38078	-85.29979	966.25627	479.82596	-36.95234	897.56414	385.71379	-36.34754	826.57728	423.38044	-393.20103	806.56060	304.13616	-384.33481	1005.50437	810.62070	-125.39382	1049.90864	708.77515	-114.24025	1038.63315	685.28464	-50.76327	942.90776	789.54675	-34.78947	986.14992	684.91958	-25.49003	940.75193	814.40932	-399.57884	943.82053	672.16275	-405.29034	829.62389	811.41340	-402.66673	827.59852	675.81802	-383.74434	960.11219	966.45127	-104.79105	773.16844	1001.84091	-178.12744	974.65655	947.23958	-337.83248	774.62591	1002.94716	-277.43525	846.72144	1456.85905	-334.97998	915.62716	1452.15570	-169.11381	897.25715	1357.75313	-480.75407	950.40524	1358.46568	-298.64105	948.36643	1345.57821	-335.08455	910.00499	1237.34300	-36.77472	839.05524	1150.91330	-34.50923	883.27000	1157.02424	8.34643	946.25604	1027.02061	24.20430	981.63619	927.83604	12.91117	955.58470	926.92382	50.28687	894.13951	1115.09649	-516.12322	853.62103	1019.92441	-452.66043	867.53393	1017.80190	-509.22753	947.41170	893.20223	-514.02794	1002.63646	805.00927	-484.58675	965.42499	784.96581	-500.17028	886.09097	885.08602	-133.99631	879.11009	884.13085	-324.53860	894.78659	886.49524	-138.53237	897.05543	888.21714	-293.13344	
100	0.99000000	1020.87879	509.72552	-64.16097	1043.24353	448.91715	-71.78678	791.63157	182.95587	-98.37915	727.26591	174.75480	-153.12208	886.85291	62.82224	-49.25741	927.52815	74.91409	-103.01809	897.60841	490.39572	-375.98991	915.14392	401.69855	-384.68610	817.81955	94.05620	-326.83120	756.59354	61.16133	-273.04511	938.33057	40.17994	-351.32693	979.59022	59.68339	-298.14281	982.20363	352.58879	-85.27394	981.04535	481.29371	-38.14749	917.19077	384.14614	-36.86738	827.99833	423.65437	-393.74009	807.30059	304.67921	-384.77735	1014.94322	813.06831	-127.39569	1061.32313	712.28860	-116.46029	1050.97725	688.65755	-52.74186	954.03550	791.70502	-35.76773	998.94397	687.73968	-26.64942	947.37109	813.84890	-400.77309	949.07679	671.75112	-405.98636	836.10714	812.24527	-403.38135	832.47021	676.72332	-384.12266	968.70825	966.96371	-106.18923	781.60675	1002.25568	-179.45191	982.89565	947.13627	-339.23516	783.08411	1003.28168	-278.78680	856.33375	1457.82799	-334.43713	923.98012	1451.81026	-168.35838	907.97264	1359.78081	-480.54442	959.53418	1358.93164	-298.14347	957.94662	1346.38574	-334.69364	917.77051	1236.47017	-36.82824	847.10060	1149.87102	-35.47509	890.77439	1156.05419	7.91248	954.03305	1026.25538	24.17539	989.89661	927.19562	13.04622	963.48353	926.13949	50.20717	906.66125	1117.44633	-517.42933	866.00479	1021.81057	-455.12585	881.03372	1019.61993	-511.39376	961.63778	895.94556	-515.98757	1017.14730	807.85934	-486.37144	980.28036	787.74163	-502.58903	894.52618	885.57347	-135.15971	887.34693	884.17792	-325.69221	903.20846	886.73279	-139.87943	905.50825	888.32958	-294.50318	
101	1.00000000	1035.03945	512.39348	-65.30562	1059.31872	452.92076	-72.18084	821.39199	174.41156	-97.51907	757.66531	162.55228	-152.21382	922.77513	59.47991	-47.94950	962.64710	73.32280	-101.78514	899.92149	490.28315	-376.98826	916.67351	401.45246	-385.63925	817.97940	94.12114	-326.92101	756.59922	61.35609	-273.10049	938.35354	40.11225	-351.35611	979.57517	59.59259	-298.22054	1003.43061	353.78867	-85.20121	995.31408	482.45422	-39.39785	936.65780	382.34540	-37.44685	829.57374	423.90731	-394.28341	808.16447	305.19467	-385.18520	1024.18059	815.04242	-129.31517	1072.32681	715.24205	-118.57838	1062.89378	691.58536	-54.65657	964.95020	793.55805	-36.81690	1011.26710	690.18226	-27.83165	954.00931	813.18517	-401.99058	954.33891	671.27857	-406.69909	842.54745	812.97343	-404.09106	837.48454	677.55609	-384.52301	977.32330	967.25727	-107.53820	790.07546	1002.47900	-180.74703	991.19555	946.90599	-340.59988	791.55458	1003.49307	-280.10421	865.95395	1458.63063	-333.78289	932.42692	1451.26400	-167.44141	918.72084	1361.64284	-480.19545	968.67658	1359.19413	-297.55573	967.52878	1346.98039	-334.20236	925.58563	1235.34303	-36.82931	855.16782	1148.61452	-36.37767	898.34393	1154.84640	7.52205	961.80318	1025.21396	24.17518	998.01679	926.23218	13.19639	971.34765	925.08933	50.17079	919.11492	1119.64081	-518.61377	878.26370	1023.68057	-457.50927	894.58751	1021.22827	-513.42093	975.75846	898.52090	-517.90029	1031.54840	810.55927	-488.20742	994.93506	790.41711	-504.95449	902.97570	885.85583	-136.32506	895.62506	884.10398	-326.84825	911.68662	886.73176	-141.21557	913.98931	888.30987	-295.86634	
102	1.01000000	1048.66596	514.73372	-66.46796	1075.00255	456.73654	-72.58194	851.75650	165.94481	-96.71102	788.83016	150.43463	-151.34980	959.00394	56.65530	-46.63721	998.01546	72.19469	-100.55458	902.40474	490.14091	-377.96863	918.33698	401.15681	-386.56758	818.17558	94.16143	-326.98849	756.64086	61.51969	-273.13136	938.36714	40.02663	-351.37550	979.57315	59.48948	-298.30464	1024.37251	354.93679	-85.17104	1009.18385	483.20822	-40.64304	956.03128	380.24542	-38.06140	831.31695	424.13986	-394.83200	809.16701	305.67146	-385.55244	1033.21016	816.55362	-131.12213	1082.95357	717.66404	-120.54126	1074.38002	694.06017	-56.45812	975.57830	795.07110	-37.90680	1023.10210	692.22485	-29.02260	960.68237	812.41614	-403.22177	959.55052	670.73113	-407.45752	848.98112	813.59215	-404.79536	842.62904	678.30191	-384.97305	985.98454	967.34885	-108.84745	798.60187	1002.52514	-182.01248	999.55564	946.55430	-341.95111	800.05311	1003.57599	-281.38306	875.59773	1459.26771	-333.01056	940.97562	1450.52019	-166.36404	929.49008	1363.33825	-479.70007	977.86608	1359.27989	-296.86821	977.10983	1347.37431	-333.60344	933.43685	1233.98423	-36.76681	863.25816	1147.15151	-37.23670	905.95619	1153.40672	7.16341	969.54038	1023.90149	24.20938	1006.00480	924.97562	13.37862	979.14159	923.78145	50.17015	931.51572	1121.68267	-519.67618	890.42678	1025.47000	-459.78470	908.14577	1022.67095	-515.30665	989.76966	900.94045	-519.76050	1045.84833	813.13443	-490.08160	1009.41779	792.96686	-507.27900	911.46938	885.94739	-137.49469	903.95218	883.90986	-328.00851	920.24082	886.52005	-142.53097	922.50046	888.15557	-297.22288	
